<svg xmlns="http://www.w3.org/2000/svg" width="176" height="22" viewBox="0 0 176 22" fill="none">	<g clipPath="url(#clip0_913_15404)">		<path d="M36.8746 2.64528C34.5173 -0.313768 31.6868 -0.810768 28.7488 1.25757L28.7017 1.29376L24.9524 4.34109L19.0725 0.906665C17.9034 0.260476 16.7386 0.410105 15.7111 1.02363C15.3633 1.23108 15.1045 1.4456 14.9451 1.60891L14.4032 2.16417L14.887 2.77108L19.6026 8.69095L13.8006 13.2054L14.9429 14.5596L22.0607 8.9571L21.5034 8.25883L16.8429 2.40826L16.9265 2.37295C17.3575 2.19772 17.7805 2.19993 18.2067 2.43474L24.5862 6.15651L25.1175 6.47166L25.5881 6.08898L29.7758 2.68368C31.6907 1.34275 33.3191 1.44825 34.9157 3.07431L22.6052 13.0832L20.7858 14.5627C18.5439 16.3852 16.6857 16.3004 14.5952 13.9757L9.207 7.37562C9.13392 7.28734 8.40361 6.43988 8.07566 6.20197C5.8614 4.59798 3.25359 4.42319 0.676603 6.64954L0 7.23261L0.535296 7.88763L6.92187 15.709C7.878 16.8795 8.81565 17.6546 9.98837 17.6555C11.1039 17.6555 12.0516 16.7365 12.3919 16.4461C12.7318 16.1561 12.1973 14.7534 12.0516 14.6806C11.7114 14.9953 10.8124 15.89 9.98837 15.8882C9.32938 15.8869 8.88212 15.257 8.31689 14.5958C8.06245 14.2988 2.49731 7.46919 2.49731 7.46919C2.49731 7.46919 2.27677 7.6122 2.49907 7.46478C4.12829 6.38824 5.63073 6.60054 7.04556 7.62588C7.29648 7.80773 7.80757 8.44686 7.83706 8.48217L13.3225 15.2001C15.8581 18.3052 18.9739 18.3229 21.9625 15.893L23.568 14.5874L36.7404 3.87587L37.4179 3.32678L36.8746 2.64528Z" fill="#DD3728"/>		<path d="M117.547 4.43725C120.596 4.43725 122.277 6.24517 122.277 9.47876C122.277 13.2826 120.398 17.606 115.772 17.606C114.259 17.606 112.954 16.9638 112.343 15.9208L111.249 22H108.694L111.746 4.60321H114.184L113.949 5.90972C114.414 5.42687 114.974 5.04652 115.593 4.79298C116.213 4.53944 116.878 4.41828 117.547 4.43725ZM171.375 4.54937C173.791 4.54937 176 5.75876 176 8.15107V8.43444H173.546V8.34043C173.546 7.29479 172.906 6.58327 171.272 6.58327C169.944 6.58327 168.474 6.98846 168.474 8.22258C168.477 8.51306 168.573 8.79493 168.749 9.02589C168.924 9.25684 169.17 9.42442 169.449 9.50348C170.391 9.88484 172.223 10.1439 173.688 10.7844C174.261 10.9768 174.758 11.347 175.108 11.8414C175.458 12.3357 175.641 12.9287 175.633 13.5347C175.633 15.2675 174.733 17.6837 170.108 17.6837C167.429 17.6837 165.055 16.544 165.055 13.9584C165.045 13.8155 165.045 13.6722 165.055 13.5294C165.051 13.4347 165.059 13.34 165.078 13.2473L167.579 13.2614C167.56 13.289 167.552 13.3226 167.555 13.3559V13.5673C167.555 14.778 168.243 15.6538 170.382 15.6538C172.303 15.6538 173.014 14.9665 173.014 13.8264C173.014 12.2869 170.051 12.4511 167.96 11.5003C167.341 11.2673 166.812 10.8428 166.45 10.2882C166.087 9.73354 165.911 9.07764 165.945 8.41546C165.945 6.9227 167.014 4.54892 171.375 4.54892V4.54937ZM159.417 4.55378C162.667 4.55378 164.372 6.5462 164.372 9.73388C164.359 10.3784 164.296 11.021 164.184 11.6557H155.338L155.292 11.9382C155.272 12.1195 155.264 12.3018 155.268 12.4842C155.268 13.954 155.862 15.6396 157.995 15.6396C159.571 15.7359 160.959 14.6143 161.198 13.054L163.783 13.1246C163.143 15.9927 160.915 17.6788 157.877 17.6788C154.7 17.6788 152.812 15.885 152.754 12.6514L152.753 12.5031C152.753 8.40134 155.179 4.55378 159.417 4.55378ZM134.085 4.55378C135.889 4.55378 137.052 4.88835 137.811 5.45332C138.17 5.72198 138.46 6.07387 138.654 6.47893C138.848 6.88399 138.942 7.33019 138.927 7.77943C138.931 8.17712 138.9 8.57481 138.833 8.96676L137.67 15.5125C137.594 15.9796 137.555 16.4518 137.552 16.9249C137.551 17.1328 137.575 17.3398 137.622 17.5424H134.99C134.991 17.079 135.047 16.6173 135.155 16.1671C134.652 16.663 134.055 17.0511 133.398 17.3078C132.741 17.5644 132.039 17.6842 131.335 17.6599C129.154 17.6599 127.374 16.4023 127.374 14.0815C127.374 11.495 129.107 10.403 131.523 10.0261C132.211 9.93207 133.374 9.79082 134.391 9.69151L134.396 9.67739C135.004 9.60896 135.613 9.55407 136.224 9.51275C136.332 9.11859 136.388 8.71119 136.389 8.30247C136.389 7.23432 136.031 6.56959 133.991 6.56959C132.578 6.56959 131.264 7.04055 131.076 8.56156H128.608C128.796 6.90372 129.983 4.55378 134.085 4.55378ZM76.778 4.50081C80.0188 4.50081 81.7237 6.4972 81.7237 9.69239C81.7107 10.3382 81.6479 10.9821 81.5358 11.6182H72.7104L72.6633 11.9015C72.6438 12.0833 72.636 12.2661 72.64 12.4488C72.64 13.9218 73.2316 15.6114 75.3592 15.6114C76.1183 15.6583 76.8674 15.4183 77.4587 14.9387C78.05 14.459 78.4406 13.7746 78.5533 13.0204L81.1321 13.0911C80.4929 15.9654 78.2716 17.655 75.2421 17.655C72.0241 17.655 70.1312 15.8003 70.1312 12.463C70.1312 8.35235 72.5691 4.50081 76.778 4.50081ZM128.177 0.0295729L125.117 17.6457H122.661L125.702 0.0300142H128.177L128.177 0.0295729ZM88.7033 4.48669C91.1125 4.48669 93.3158 5.69962 93.3158 8.09723V8.3806H90.855V8.28614C90.855 7.23829 90.2158 6.52545 88.5813 6.52545C87.2567 6.52545 85.7913 6.93152 85.7913 8.16299C85.7928 8.45308 85.8879 8.73489 86.0623 8.96637C86.2366 9.19785 86.481 9.3666 86.7588 9.44742C87.6983 9.82967 89.5251 10.0892 90.9862 10.731C91.5587 10.9256 92.0549 11.2973 92.4035 11.7926C92.752 12.2879 92.9348 12.8813 92.9257 13.4874C92.9257 15.2243 92.029 17.6453 87.4165 17.6453C84.744 17.6453 82.3766 16.5034 82.3766 13.912C82.3747 13.7685 82.3825 13.625 82.3999 13.4826C82.3955 13.3877 82.4038 13.2928 82.4237 13.1996L84.9174 13.2182C84.9051 13.2367 84.8972 13.2579 84.8946 13.28V13.5249C84.8946 14.7383 85.58 15.6162 87.7119 15.6162C89.6286 15.6162 90.3378 14.9268 90.3378 13.7845C90.3378 12.2414 87.3839 12.4065 85.2982 11.4531C84.6796 11.218 84.1515 10.7918 83.7901 10.2361C83.4288 9.68047 83.2529 9.02404 83.2878 8.36162C83.2878 6.86532 84.354 4.48625 88.7033 4.48625V4.48669ZM51.3998 4.50081C53.199 4.50081 54.3589 4.83627 55.1152 5.40256C55.4742 5.67267 55.7628 6.02565 55.9567 6.43154C56.1505 6.83742 56.2437 7.28421 56.2285 7.73396C56.232 8.13254 56.2008 8.53022 56.1347 8.9235L54.9743 15.4838C54.9 15.9522 54.8607 16.4255 54.8568 16.8998C54.8568 17.1081 54.8806 17.3156 54.9272 17.5182H52.3018C52.3031 17.0538 52.3591 16.5913 52.466 16.1402C51.9664 16.6367 51.3707 17.0256 50.7157 17.2829C50.0606 17.5403 49.36 17.6606 48.6569 17.6365C46.4822 17.6365 44.7069 16.3759 44.7069 14.0493C44.7069 11.4579 46.4351 10.3629 48.8449 9.98547C49.5307 9.89102 50.6907 9.74933 51.7053 9.65002L51.7097 9.6359C52.3159 9.56706 52.9236 9.51202 53.5322 9.47082C53.6405 9.07578 53.696 8.6675 53.6969 8.25789C53.6969 7.18665 53.3398 6.52104 51.3061 6.52104C49.897 6.52104 48.5865 6.99332 48.3985 8.51743H45.9377C46.1252 6.85119 47.309 4.50081 51.3998 4.50081ZM45.5759 0L42.5155 17.6157H40.0591L43.101 0H45.5759ZM147.794 4.55819C150.045 4.55819 151.637 5.74552 151.637 8.18506C151.617 8.7416 151.554 9.29573 151.448 9.84247L150.097 17.5279H147.582L148.957 9.55998C149.022 9.20731 149.054 8.84935 149.051 8.49094C149.051 7.28066 148.387 6.68744 147.082 6.68744C144.756 6.68744 143.404 8.75004 143.027 11.0294L141.887 17.5279H139.373L141.624 4.72327H144.143L143.809 6.55061C144.27 5.92795 144.871 5.42307 145.564 5.0769C146.256 4.73073 147.02 4.55303 147.794 4.55819ZM65.1855 4.50081C67.4354 4.50081 69.0184 5.69035 69.0184 8.13518C68.9985 8.69447 68.9357 9.25138 68.8304 9.80097L67.4825 17.504H64.9742L66.3459 9.51805C66.411 9.1645 66.4427 8.80565 66.4396 8.44636C66.4396 7.23343 65.7775 6.63889 64.4763 6.63889C62.1564 6.63889 60.808 8.70634 60.4321 10.991L59.2954 17.504H56.8157L59.0608 4.67075L61.5454 4.66633L61.2121 6.4972C61.6706 5.874 62.2696 5.3683 62.9601 5.02135C63.6506 4.67441 64.4131 4.49604 65.1855 4.50081ZM135.889 11.4813C135.39 11.5047 134.919 11.552 134.476 11.5992C133.647 11.6698 132.72 11.7638 132.079 11.8817C130.845 12.1408 129.969 12.5455 129.969 13.9447C129.969 14.726 130.44 15.6304 131.891 15.6304C134.246 15.6304 135.399 14.255 135.659 12.7388L135.889 11.4813ZM53.199 11.4438C52.7011 11.4438 52.2314 11.5144 51.7899 11.5617C50.9632 11.6323 50.0422 11.7272 49.3991 11.845C48.1687 12.1046 47.2949 12.5106 47.2949 13.9125C47.2949 14.6959 47.7646 15.6021 49.2111 15.6021C51.5596 15.6021 52.7108 14.2237 52.9687 12.6991L53.199 11.4438ZM117.115 6.52898C115.128 6.52898 113.592 7.78914 113.024 11.0218C112.936 11.5237 112.889 12.0322 112.883 12.5415C112.883 14.6558 113.949 15.5103 115.579 15.5103C118.609 15.5103 119.741 12.2065 119.741 9.47347V9.47876C119.741 7.4581 118.726 6.52898 117.115 6.52898ZM159.323 6.57886C157.59 6.57886 156.215 7.81253 155.767 9.71049L161.862 9.70608V9.541C161.862 9.44698 161.886 9.35297 161.886 9.28191C161.886 7.39807 160.769 6.57886 159.323 6.57886ZM76.6838 6.52589C74.9555 6.52589 73.5838 7.76177 73.1379 9.66415L79.2154 9.65973V9.49421C79.2154 9.39976 79.2392 9.30574 79.2392 9.23468C79.2392 7.34687 78.1254 6.52589 76.6838 6.52589Z" fill="black"/>		<path d="M103.711 13.9041C104.017 13.3938 104.499 12.395 104.626 11.5524H106.505C106.239 12.9164 105.625 14.1878 104.722 15.2424C105.069 15.7588 105.398 16.1649 105.961 16.1649H106.472L106.199 17.6916L105.101 17.696C104.186 17.696 103.729 17.0366 103.368 16.5568C102.304 17.46 100.932 17.9147 99.5399 17.8254C98.9062 17.8615 98.2743 17.7291 97.7081 17.4415C97.1419 17.154 96.6616 16.7214 96.3158 16.1878C95.975 15.6134 95.7993 14.9556 95.8082 14.2872C95.8023 13.6506 95.9598 13.0231 96.2656 12.4652C96.7547 11.5427 97.706 10.7906 99.1103 10.1316C98.6218 9.49303 98.3538 8.71254 98.3465 7.90786C98.3465 5.94325 99.7182 4.67868 101.685 4.67868C103.78 4.67868 104.566 6.11363 104.566 7.12352C104.564 7.56965 104.466 8.01012 104.281 8.41572C104.096 8.82132 103.826 9.18277 103.491 9.4761C102.885 9.9803 102.195 10.3723 101.452 10.6339L103.168 13.0571L101.966 14.4068L99.8326 11.4089C98.5199 12.1977 97.7747 12.8249 97.7747 14.1764C97.7747 15.5279 98.6894 16.2156 99.9423 16.2156C100.882 16.2253 101.702 15.8228 102.476 15.2238C103.251 14.6253 103.418 14.2969 103.711 13.9041ZM102.846 7.21224C102.844 7.06179 102.81 6.91349 102.748 6.77638C102.687 6.63927 102.598 6.51623 102.487 6.41475C102.376 6.31327 102.246 6.23549 102.104 6.18615C101.962 6.1368 101.812 6.11693 101.662 6.12775C100.831 6.07081 100.111 6.70464 100.054 7.54328C100.049 7.62361 100.05 7.70394 100.057 7.78383C100.07 8.36765 100.289 8.92793 100.674 9.36576C101.548 9.01574 102.842 8.44326 102.842 7.21621L102.846 7.21224Z" fill="#DD3728"/>	</g>	<defs>		<clipPath id="clip0_913_15404">			<rect width="176" height="22" fill="black"/>		</clipPath>	</defs></svg>